<svg width="544" height="399" viewBox="0 0 544 399" fill="none" xmlns="http://www.w3.org/2000/svg">
  <path
    d="M225.832 164.41C228.442 161.63 231.172 158.95 233.652 156.05C239.145 149.564 243.872 142.467 247.742 134.9C250.072 130.41 251.932 125.66 253.812 120.95C255.182 117.5 256.362 113.95 257.392 110.4C258.162 107.74 258.552 104.96 259.102 102.24C259.392 100.84 259.712 99.45 259.932 98.05C260.382 95.22 260.792 92.39 261.192 89.56C261.297 88.8478 261.357 88.1297 261.372 87.41C261.372 81.49 261.472 75.58 261.372 69.66C261.255 66.8789 260.947 64.1092 260.452 61.37C259.892 57.93 259.282 54.49 258.452 51.1C257.552 47.42 256.392 43.8 255.342 40.16C253.253 33.2345 250.399 26.5633 246.832 20.27C244.292 15.69 241.292 11.36 238.442 6.95C237.442 5.45 236.312 4.06 234.982 2.26C236.052 2.07 236.772 1.9 237.512 1.82C241.462 1.38 245.422 0.959999 249.382 0.529999C249.942 0.469999 250.492 0.399999 251.052 0.389999C260.402 0.249999 269.752 0.05 279.102 0C283.569 0 288.042 0.139998 292.522 0.419998C296.082 0.659998 299.622 1.25 303.182 1.67C305.312 1.93 307.462 2.09 309.592 2.4C313.592 2.99 317.592 3.62 321.592 4.31C324.952 4.89 328.292 5.54 331.592 6.23C333.832 6.7 336.062 7.29 338.282 7.87C341.052 8.58 343.812 9.28 346.552 10.07C349.132 10.82 351.692 11.66 354.252 12.51C362.532 15.23 370.672 18.27 378.682 21.71C388.185 25.7379 397.432 30.3432 406.372 35.5C412.472 39.05 418.472 42.82 424.282 46.83C430.942 51.44 437.502 56.22 443.802 61.3C449.312 65.75 454.472 70.63 459.642 75.47C463.302 78.89 466.802 82.47 470.222 86.15C478.913 95.4571 486.933 105.369 494.222 115.81C499.647 123.548 504.674 131.559 509.282 139.81C512.442 145.49 515.402 151.3 518.082 157.22C521.282 164.287 524.262 171.45 527.022 178.71C528.842 183.44 530.182 188.36 531.652 193.21C532.825 197.057 533.929 200.93 534.962 204.83C535.712 207.66 536.292 210.54 536.962 213.4C537.682 216.64 538.412 219.89 539.082 223.15C539.392 224.62 539.582 226.15 539.782 227.62C540.122 230.23 540.432 232.84 540.782 235.44C541.132 238.04 541.472 240.44 541.782 243.01C541.982 244.75 542.092 246.5 542.252 248.24C542.382 249.67 542.522 251.09 542.652 252.52C542.812 254.27 543.082 256.01 543.082 257.76C543.122 267.36 543.122 276.953 543.082 286.54C543.024 287.813 542.89 289.082 542.682 290.34C542.552 291.45 542.332 292.55 542.292 293.66C542.186 297.962 541.738 302.249 540.952 306.48C540.472 308.89 540.332 311.38 539.952 313.82C539.452 317.11 538.952 320.4 538.302 323.68C537.752 326.55 537.112 329.41 536.412 332.25C535.412 336.25 534.352 340.25 533.292 344.19C532.632 346.63 532.012 349.09 531.242 351.49C529.832 355.87 528.432 360.26 526.832 364.57C524.832 369.86 522.832 375.13 520.562 380.29C518.082 385.94 515.282 391.46 512.652 397.05C512.484 397.502 512.174 397.887 511.768 398.146C511.362 398.406 510.883 398.527 510.402 398.49H428.872C428.699 398.231 428.564 397.948 428.472 397.65C428.142 394.01 428.022 390.33 427.472 386.73C426.896 383.137 426.108 379.58 425.112 376.08C423.681 371.116 421.667 366.34 419.112 361.85C417.271 358.506 415.202 355.292 412.922 352.23C408.756 346.708 403.823 341.808 398.272 337.68C392.754 333.368 386.601 329.937 380.032 327.51C376.452 326.26 372.932 324.63 369.252 324C364.962 323.27 360.692 322 356.252 322.27C353.862 322.4 351.452 322.37 349.052 322.27C345.342 322.13 341.772 322.99 338.152 323.53C334.407 324.168 330.726 325.139 327.152 326.43C320.456 328.721 314.132 331.982 308.382 336.11C299.332 342.537 291.774 350.839 286.222 360.45C283.674 364.859 281.609 369.529 280.062 374.38C278.316 379.901 277.103 385.577 276.442 391.33C276.282 393.162 276.242 395.003 276.322 396.84C276.322 398.07 275.782 398.6 274.582 398.55C274.102 398.55 273.582 398.55 273.142 398.55H164.772C164.772 398.55 164.612 396.38 164.612 395.45C164.612 375.45 164.612 355.45 164.612 335.45C164.699 330.75 163.75 326.089 161.831 321.797C159.913 317.506 157.073 313.689 153.512 310.62C149.818 307.341 145.396 304.989 140.612 303.76C136.85 302.625 132.893 302.284 128.992 302.76C116.772 304.68 107.612 310.91 102.612 322.51C100.96 326.293 100.121 330.382 100.152 334.51C100.212 354.65 100.152 374.8 100.152 394.95C100.152 398.49 100.152 398.49 96.6322 398.49H32.5522C32.1196 398.502 31.6939 398.379 31.3352 398.137C30.9764 397.894 30.7026 397.546 30.5522 397.14C28.0122 391.76 25.2322 386.48 22.8422 381.03C20.0822 374.717 17.5022 368.323 15.1022 361.85C13.3322 357.09 11.9522 352.18 10.5122 347.31C9.17887 342.843 7.95555 338.35 6.84222 333.83C6.15222 331.06 5.72222 328.22 5.18222 325.41C5.18222 325.25 5.18222 325.09 5.18222 324.93C4.26222 319.85 3.2622 314.79 2.4422 309.69C1.9622 306.63 1.7622 303.52 1.4422 300.44C1.02886 296.633 0.625538 292.827 0.232205 289.02C0.135781 288.23 0.0790605 287.436 0.0622222 286.64C0.0622222 276.72 -0.0777778 266.81 0.0622222 256.9C0.132222 252.61 0.832225 248.33 1.25222 244.04C1.25222 243.72 1.32221 243.41 1.36221 243.09C1.85221 239.14 2.3022 235.2 2.8222 231.26C3.3122 227.64 3.7322 224.01 4.4422 220.44C5.2722 216.24 6.3922 212.1 7.3822 207.94C8.0222 205.25 8.5722 202.53 9.3222 199.87C10.4422 195.87 11.5622 191.77 12.9422 187.81C15.2222 181.23 17.5622 174.66 20.1222 168.19C23.7209 159.066 27.958 150.208 32.8022 141.68C35.3422 137.21 37.7222 132.63 40.4522 128.27C43.5455 123.35 46.8055 118.54 50.2322 113.84C54.2322 108.38 58.2922 102.98 62.5922 97.77C70.5527 88.139 79.1878 79.0862 88.4322 70.68C103.363 57.0788 119.765 45.1852 137.332 35.22C145.572 30.5533 154.009 26.3133 162.642 22.5C170.092 19.1523 177.732 16.244 185.522 13.79C190.732 12.17 195.942 10.52 201.182 9.01C203.912 8.22 206.742 7.77 209.482 7.01C209.934 6.8533 210.424 6.84337 210.882 6.98165C211.34 7.11993 211.742 7.39934 212.032 7.78C215.522 11.78 219.152 15.78 222.452 19.92C227.079 25.7997 231.042 32.1715 234.272 38.92C236.502 43.56 238.392 48.37 240.272 53.18C241.565 56.7483 242.627 60.3957 243.452 64.1C244.732 69.44 245.552 74.81 246.362 80.22C247.302 86.53 247.142 92.82 247.012 99.11C246.942 103 246.122 106.86 245.832 110.75C245.489 113.657 244.979 116.542 244.302 119.39C243.207 124.817 241.689 130.15 239.762 135.34C236.237 145.132 231.446 154.421 225.512 162.97C225.162 163.47 224.802 163.97 224.442 164.46C223.032 165.481 222.023 166.963 221.592 168.65C223.308 167.974 224.688 166.648 225.432 164.96L225.832 164.41ZM122.692 140.74C122.122 145.74 126.692 150.62 132.422 150.53C133.724 150.513 135.009 150.24 136.205 149.726C137.4 149.212 138.483 148.468 139.392 147.535C140.3 146.603 141.015 145.501 141.498 144.292C141.98 143.083 142.219 141.791 142.202 140.49C142.185 139.189 141.912 137.903 141.398 136.707C140.884 135.512 140.14 134.429 139.208 133.521C138.275 132.613 137.173 131.897 135.965 131.415C134.756 130.932 133.464 130.693 132.162 130.71C127.612 130.74 122.252 134.21 122.692 140.74Z"
    fill="#B09979" />
</svg>